<svg class="icon" xmlns="http://www.w3.org/2000/svg" xmlns:xlink="http://www.w3.org/1999/xlink" viewBox="0 0 18 18"><g fill="#db343b" fill-rule="evenodd"><path d="M14 14h3a1 1 0 0 1 0 2h-3v1a1 1 0 0 1-2 0v-4a1 1 0 0 1 2 0v1zM5 8V7a1 1 0 1 1 2 0v4a1 1 0 0 1-2 0v-1H1a1 1 0 1 1 0-2h4zm7-6h5a1 1 0 0 1 0 2h-5v1a1 1 0 0 1-2 0V1a1 1 0 0 1 2 0v1zM7.111 4H.89C.398 4 0 3.552 0 3s.398-1 .889-1H7.11C7.602 2 8 2.448 8 3s-.398 1-.889 1zm9.989 6H9.9c-.497 0-.9-.448-.9-1s.403-1 .9-1h7.2c.497 0 .9.448.9 1s-.403 1-.9 1zm-8.01 6H.91C.406 16 0 15.552 0 15s.407-1 .91-1h8.18c.503 0 .91.448.91 1s-.407 1-.91 1z"/></g></svg>